<?xml version="1.0" encoding="UTF-8" standalone="no"?>
<svg
   xmlns:dc="http://purl.org/dc/elements/1.1/"
   xmlns:cc="http://creativecommons.org/ns#"
   xmlns:rdf="http://www.w3.org/1999/02/22-rdf-syntax-ns#"
   xmlns:svg="http://www.w3.org/2000/svg"
   xmlns="http://www.w3.org/2000/svg"
   viewBox="0 0 390.78668 111.48"
   height="111.48"
   width="390.78668"
   xml:space="preserve"
   id="svg875"
   version="1.1"><metadata
     id="metadata881"><rdf:RDF><cc:Work
         rdf:about=""><dc:format>image/svg+xml</dc:format><dc:type
           rdf:resource="http://purl.org/dc/dcmitype/StillImage" /><dc:title></dc:title></cc:Work></rdf:RDF></metadata><defs
     id="defs879" /><g
     transform="matrix(1.3333333,0,0,-1.3333333,0,111.48)"
     id="g883"><g
       transform="scale(0.1)"
       id="g885"><path
         id="path887"
         style="fill:#3F9FFF;fill-opacity:1;fill-rule:nonzero;stroke:none"
         d="m 2930.94,139.48 h -681.46 v 683.625 h 681.46 V 139.48" /><path
         id="path889"
         style="fill:#ffffff;fill-opacity:1;fill-rule:nonzero;stroke:none"
         d="m 2390.59,158.625 h -122.23 v 122.23 h 122.23 v -122.23" /><path
         id="path891"
         style="fill:#3F9FFF;fill-opacity:1;fill-rule:nonzero;stroke:none"
         d="M 483.141,681.727 H 334.316 v 139.25 h 148.825 v -139.25" /><path
         id="path893"
         style="fill:#9F9F9F;fill-opacity:1;fill-rule:nonzero;stroke:none"
         d="m 309.285,721.664 v 96.254 c 0,0 -36.289,17.363 -93.097,18.152 C 159.375,836.855 55.2344,826.602 57.5977,667.223 H 0 V 582.797 H 57.5977 V 140.176 H 203.559 v 439.472 h 62.336 v 86.786 h -62.336 c 0,0 -0.305,62.191 25.25,70.222 27.613,8.676 64.699,-7.886 80.476,-14.992" /><path
         id="path895"
         style="fill:#9F9F9F;fill-opacity:1;fill-rule:nonzero;stroke:none"
         d="M 333.738,665.648 H 481.285 V 140.176 H 334.531 l -0.793,525.472" /><path
         id="path897"
         style="fill:#9F9F9F;fill-opacity:1;fill-rule:nonzero;stroke:none"
         d="M 574.379,667.227 V 139.395 h 145.969 v 411.851 c 0,0 0.785,3.156 -0.793,11.836 0,0 10.258,7.094 26.828,6.309 16.566,-0.789 30.773,-7.102 33.137,-22.883 2.367,-15.781 0,-407.906 0,-407.906 h 147.546 v 413.433 c 0,0 6.313,63.11 -52.867,102.563 -59.179,39.453 -162.539,10.254 -172.008,-3.946 l -7.89,16.575 H 574.379" /><path
         id="path899"
         style="fill:#9F9F9F;fill-opacity:1;fill-rule:nonzero;stroke:none"
         d="M 1030.86,820.066 V 667.77 h -47.106 v -85.832 h 47.756 V 267.613 c 0,0 -10.32,-126.488 120.68,-128.425 h 94.86 v 91.636 h -36.78 c 0,0 -28.4,1.293 -29.04,32.27 v 318.152 h 76.15 v 85.184 h -77.44 v 154.222 l -149.08,-0.586" /><path
         id="path901"
         style="fill:#9F9F9F;fill-opacity:1;fill-rule:nonzero;stroke:none"
         d="m 1519.18,235.996 c 0,0 -12.36,-10 -29.98,-10 -17.62,0 -35.7,0.477 -34.28,100.438 1.43,99.961 18.56,109 38.56,108.527 20,-0.473 25.7,-11.895 25.7,-16.184 z m -11.41,438.164 c -102.6,0.645 -147.14,-32.91 -147.14,-32.91 v -99.387 c 47.74,26.844 66.43,33.164 108.93,35.664 42.5,2.5 50.42,-33.332 50.42,-33.332 v -26.25 c -2.08,0.418 -14.58,11.25 -58.1,13.52 -72.5,2.5 -160.84,-37.5 -155.84,-200 5,-162.5 93.32,-198.75 150.75,-197.453 57.43,1.301 78.08,20 78.08,20 l 9.05,-15.489 h 120.03 v 402.696 c -9.68,70.344 -53.57,132.297 -156.18,132.941" /><path
         id="path903"
         style="fill:#9F9F9F;fill-opacity:1;fill-rule:nonzero;stroke:none"
         d="m 1951.13,249.457 c 0,0 -9.39,-7.027 -24.02,-7.027 -14.63,0 -27.68,6.011 -31.07,44.656 -3.4,38.641 -4.46,115.922 -4.46,126.102 0,10.179 3.21,103.07 6.33,124.632 3.13,21.563 10.94,34.063 31.56,33.75 20.63,-0.312 21.66,-4.222 21.66,-4.222 z m -0.33,417.707 v -5.504 c 0,0 -24.44,13.445 -59.89,13.445 -35.45,0 -152.37,-14.472 -151.12,-259.472 1.25,-245 77.5,-262.5 143.75,-262.5 66.25,0 76.25,17.5 76.25,17.5 0,0 4.03,-34.336 -9.09,-50.36 -13.11,-16.023 -28.79,-21.8472 -54.65,-22.2183 -25.85,-0.3711 -77.57,8.0083 -108.19,23.6723 l -21.14,-90.3403 c 0,0 49.32,-32.003888 145.57,-31.3788875 96.25,0.6250005 183.75,54.3749875 183.75,153.1251875 0,98.75 0,513.75 0,513.75 l -145.24,0.281" /></g></g></svg>
